<svg aria-hidden="true" data-prefix="fad" data-icon="list-alt" class="svg-inline--fa fa-list-alt fa-w-16" xmlns="http://www.w3.org/2000/svg" viewBox="0 0 512 512"><g class="fa-group"><path class="fa-secondary" fill="currentColor" d="M464 32H48A48 48 0 000 80v352a48 48 0 0048 48h416a48 48 0 0048-48V80a48 48 0 00-48-48zM128 392a40 40 0 1140-40 40 40 0 01-40 40zm0-96a40 40 0 1140-40 40 40 0 01-40 40zm0-96a40 40 0 1140-40 40 40 0 01-40 40zm288 168a12 12 0 01-12 12H204a12 12 0 01-12-12v-32a12 12 0 0112-12h200a12 12 0 0112 12zm0-96a12 12 0 01-12 12H204a12 12 0 01-12-12v-32a12 12 0 0112-12h200a12 12 0 0112 12zm0-96a12 12 0 01-12 12H204a12 12 0 01-12-12v-32a12 12 0 0112-12h200a12 12 0 0112 12z" opacity=".4"/><path class="fa-primary" fill="currentColor" d="M128 200a40 40 0 10-40-40 40 40 0 0040 40zm0 16a40 40 0 1040 40 40 40 0 00-40-40zm0 96a40 40 0 1040 40 40 40 0 00-40-40z"/></g></svg>