<?xml version="1.0" standalone="no"?>
<!DOCTYPE svg PUBLIC "-//W3C//DTD SVG 20010904//EN"
 "http://www.w3.org/TR/2001/REC-SVG-20010904/DTD/svg10.dtd">
<svg version="1.0" xmlns="http://www.w3.org/2000/svg"
 width="621.000000pt" height="621.000000pt" viewBox="0 0 621.000000 621.000000"
 preserveAspectRatio="xMidYMid meet">
<metadata>
Created by potrace 1.11, written by Peter Selinger 2001-2013
</metadata>
<g transform="translate(0.000000,621.000000) scale(0.100000,-0.100000)"
fill="#000000" stroke="none">
<path d="M1461 6118 c-38 -83 -78 -212 -91 -290 -31 -190 -20 -465 25 -645 27
-106 97 -287 160 -413 23 -47 46 -96 50 -109 7 -24 7 -24 -53 -17 -154 17
-401 96 -523 167 -186 108 -373 281 -497 461 -78 113 -105 143 -120 134 -35
-22 -161 -346 -193 -496 -30 -147 -38 -447 -15 -575 43 -232 120 -423 256
-640 96 -153 233 -330 324 -420 54 -53 96 -107 96 -121 0 -15 -10 -16 -89 -10
-108 8 -117 2 -107 -76 27 -198 91 -418 168 -573 85 -169 114 -195 226 -195
71 0 93 17 132 104 35 77 132 365 159 471 28 111 51 297 51 413 0 53 3 127 7
165 8 88 18 90 154 39 211 -81 488 -132 709 -132 214 0 547 60 804 144 77 25
141 44 144 42 25 -26 -116 -243 -236 -364 -209 -209 -422 -321 -772 -407 -229
-57 -232 -57 -218 -70 26 -24 255 -51 498 -59 141 -5 381 17 526 48 162 35
424 132 583 217 151 81 317 190 446 294 151 122 153 123 165 91 17 -46 -13
-223 -54 -320 -28 -67 -120 -197 -206 -290 -59 -65 -78 -92 -70 -100 15 -15
142 -12 297 8 179 24 268 42 380 80 238 80 395 192 511 362 40 60 66 82 77 65
11 -19 34 -155 49 -296 48 -447 55 -477 102 -495 40 -15 171 -12 204 5 53 27
161 226 213 392 49 152 53 243 18 396 -23 98 10 90 125 -29 51 -53 96 -94 102
-90 19 11 36 142 35 271 0 103 -5 148 -23 215 -62 226 -131 336 -337 535 -57
55 -103 105 -103 111 0 27 162 32 295 10 115 -20 121 -11 47 66 -72 75 -183
142 -280 170 -56 16 -89 19 -207 15 -148 -6 -217 -19 -318 -64 -45 -20 -61
-23 -70 -14 -8 8 -14 100 -19 313 -8 319 -18 432 -41 455 -19 19 -26 8 -156
-224 -114 -203 -132 -230 -150 -219 -6 4 -43 55 -82 112 -153 228 -312 349
-551 418 -156 45 -278 57 -673 66 -408 10 -455 16 -658 84 -316 106 -600 281
-846 520 -62 61 -143 147 -179 191 -89 109 -144 165 -160 165 -7 0 -26 -28
-41 -62z m179 -98 c284 -348 686 -622 1094 -746 163 -49 220 -57 491 -64 392
-10 545 -19 637 -36 187 -35 291 -73 413 -152 121 -77 179 -138 292 -307 66
-98 86 -120 103 -110 14 8 41 52 120 190 147 258 153 267 161 252 16 -28 30
-205 37 -474 8 -316 8 -315 82 -282 73 34 167 58 276 70 220 26 393 -32 540
-182 54 -55 51 -57 -47 -39 -101 20 -290 13 -304 -10 -6 -10 29 -51 163 -189
210 -216 302 -425 302 -684 0 -105 -14 -243 -27 -256 -2 -3 -44 37 -93 87 -67
68 -97 92 -115 92 -36 0 -41 -22 -21 -104 33 -142 16 -276 -59 -460 -51 -125
-128 -259 -163 -282 -32 -21 -153 -30 -191 -15 -40 17 -61 79 -76 231 -31 321
-55 493 -75 546 -5 13 -15 24 -23 24 -15 0 -60 -46 -102 -105 -15 -22 -33 -44
-39 -50 -6 -5 -19 -23 -29 -38 -10 -16 -25 -26 -35 -25 -9 2 -16 -3 -15 -9 7
-31 -201 -148 -357 -202 -107 -37 -186 -55 -325 -75 -191 -27 -205 -27 -222
-10 -14 13 -17 13 -32 -1 -19 -16 -81 -21 -81 -6 0 5 26 38 58 73 71 79 150
186 190 258 61 110 102 341 69 385 -20 26 -33 18 -174 -94 -153 -122 -355
-253 -493 -321 -76 -37 -280 -117 -380 -148 -148 -47 -204 -58 -467 -87 -23
-2 -45 0 -48 6 -5 7 -12 6 -21 -2 -19 -15 -331 -5 -489 16 -60 8 -114 15 -118
15 -22 0 8 19 40 24 91 17 374 100 452 134 202 86 328 171 478 324 121 122
226 278 235 348 4 35 -24 37 -104 6 -84 -31 -263 -81 -358 -100 -167 -32 -329
-56 -395 -56 -38 -1 -83 -2 -100 -2 -67 -3 -266 13 -345 27 -146 28 -332 80
-392 111 -15 8 -48 15 -74 17 -64 3 -74 -16 -74 -148 -1 -299 -46 -529 -172
-870 -60 -164 -71 -182 -117 -196 -53 -16 -124 -4 -161 27 -38 33 -133 221
-175 350 -36 109 -82 311 -87 384 l-3 45 75 1 c102 1 130 8 123 35 -3 11 -38
55 -77 97 -160 172 -261 306 -378 502 -75 126 -138 258 -138 289 0 9 -4 21 -9
27 -15 15 -70 223 -81 307 -20 158 -9 369 32 557 29 137 154 450 179 450 9 0
29 -27 139 -180 25 -35 83 -102 129 -149 47 -47 83 -90 82 -96 -1 -5 0 -7 4
-3 4 3 47 -24 95 -61 49 -36 121 -85 162 -108 121 -69 427 -161 548 -166 57
-2 57 -1 -19 163 -147 316 -179 437 -188 715 -8 268 17 426 97 602 l30 66 31
-29 c17 -16 66 -72 109 -124z"/>
<path d="M5685 3200 c-8 -13 20 -24 41 -16 20 8 9 26 -16 26 -10 0 -22 -5 -25
-10z"/>
<path d="M1010 3104 c0 -8 5 -12 10 -9 6 4 8 11 5 16 -9 14 -15 11 -15 -7z"/>
<path d="M1879 2516 c-14 -7 -48 -15 -74 -19 -27 -3 -51 -10 -53 -16 -2 -6
-16 -11 -31 -11 -15 0 -36 -7 -47 -15 -10 -8 -29 -15 -40 -15 -12 0 -27 -7
-34 -15 -7 -8 -20 -15 -30 -15 -10 0 -23 -7 -30 -15 -6 -8 -21 -17 -33 -21
-22 -7 -29 -12 -82 -60 -47 -42 -47 -77 1 -121 20 -18 45 -33 55 -33 17 0 117
55 129 70 3 4 17 10 33 14 15 3 27 11 27 16 0 6 10 10 23 10 13 0 32 7 43 15
10 8 27 15 37 15 11 0 33 6 50 14 18 8 56 17 86 20 30 3 59 10 65 16 14 14
259 13 273 -1 6 -6 39 -13 74 -16 35 -3 73 -12 84 -19 11 -8 29 -14 41 -14 12
0 37 -8 56 -17 18 -9 45 -22 60 -30 14 -7 33 -13 41 -13 9 0 17 -3 19 -7 5
-13 128 -73 148 -73 22 0 90 64 90 84 0 40 -37 80 -110 120 -49 27 -59 32
-115 57 -27 12 -62 28 -77 35 -14 8 -37 14 -50 14 -12 0 -32 7 -42 15 -11 8
-36 15 -57 15 -20 0 -50 7 -65 15 -40 21 -426 22 -465 1z"/>
<path d="M3820 2253 c-47 -17 -55 -97 -15 -138 l26 -25 648 0 647 0 22 25 c31
35 30 100 0 126 -22 18 -51 18 -668 18 -355 0 -652 -3 -660 -6z"/>
<path d="M1368 2043 c-10 -2 -18 -9 -18 -14 0 -5 -8 -9 -17 -9 -38 -1 -126
-68 -187 -142 l-38 -48 -72 0 c-83 0 -142 -23 -175 -67 -11 -16 -25 -33 -31
-40 -13 -16 -13 -163 0 -163 6 0 10 -6 10 -13 0 -18 72 -87 91 -87 21 0 80
-29 100 -49 23 -24 40 -92 53 -211 6 -58 14 -109 17 -115 4 -5 9 -26 13 -46 6
-34 57 -147 80 -178 6 -8 45 -48 86 -90 82 -83 198 -151 258 -151 17 0 32 -4
32 -10 0 -7 200 -10 580 -10 380 0 580 3 580 10 0 6 14 10 31 10 16 0 54 11
82 24 80 36 206 141 207 173 0 6 4 13 9 15 15 5 69 115 77 155 3 21 10 43 15
48 4 6 9 110 11 232 l3 222 29 30 c28 29 35 31 101 31 66 0 74 -2 97 -29 26
-28 26 -29 31 -257 3 -178 8 -239 21 -274 35 -97 83 -175 142 -234 67 -67 186
-136 234 -136 16 0 30 -4 30 -10 0 -7 195 -10 565 -10 370 0 565 3 565 10 0 6
14 10 31 10 16 0 65 17 107 37 59 29 97 57 160 120 45 46 82 88 82 93 0 6 11
28 25 49 13 22 27 52 31 68 4 15 11 33 15 39 5 6 13 37 18 70 5 32 15 92 21
131 6 40 17 85 25 100 8 16 15 33 15 39 0 16 79 94 95 94 24 0 75 51 95 96 62
134 -29 274 -179 274 -71 0 -99 8 -106 29 -14 44 -156 161 -196 161 -10 0 -19
6 -21 13 -4 9 -153 13 -691 15 -675 2 -688 2 -735 -18 -105 -46 -176 -101
-247 -192 -16 -20 -23 -23 -34 -14 -9 7 -83 11 -220 12 l-206 1 -71 70 c-65
64 -92 82 -196 127 -32 14 -115 16 -725 15 -378 -1 -696 -3 -705 -6z m1372
-310 c58 -30 106 -82 115 -125 4 -15 11 -30 16 -33 12 -8 12 -482 0 -489 -5
-3 -12 -18 -16 -33 -10 -41 -63 -101 -108 -123 -39 -19 -64 -20 -597 -20
l-557 0 -49 25 c-41 22 -86 63 -133 121 -5 6 -12 21 -15 35 -4 13 -11 33 -16
44 -5 11 -14 63 -19 115 -6 52 -16 131 -22 175 -6 44 -9 114 -6 156 3 66 7 79
33 108 64 72 30 69 711 70 l611 1 52 -27z m2385 4 c21 -12 52 -40 67 -62 27
-38 28 -44 24 -135 -4 -95 -27 -289 -45 -387 -11 -61 -68 -152 -114 -185 -86
-61 -51 -58 -644 -58 l-543 0 -40 25 c-50 32 -77 61 -101 109 -17 36 -19 64
-19 286 0 222 2 250 19 286 27 56 68 96 131 126 32 15 92 17 630 17 591 -1
595 -1 635 -22z"/>
<path d="M2015 1711 l-100 -6 -22 -45 c-22 -44 -30 -100 -16 -113 3 -4 20 4
37 17 82 62 211 26 259 -73 19 -38 23 -96 7 -106 -5 -3 -10 -17 -10 -30 0 -15
-15 -36 -42 -59 -33 -29 -50 -36 -83 -36 -23 0 -45 -3 -48 -7 -10 -9 33 -53
51 -53 9 0 24 -8 35 -17 28 -26 266 -26 295 0 10 9 23 17 29 17 25 0 120 101
148 157 40 82 47 198 15 282 -12 33 -28 62 -35 65 -22 8 -414 14 -520 7z"/>
<path d="M4178 1711 c-53 -3 -99 -8 -101 -11 -12 -12 -47 -113 -47 -134 0 -37
12 -38 45 -6 25 24 40 30 80 31 28 1 63 -2 79 -6 34 -9 96 -62 96 -82 0 -7 5
-13 10 -13 15 0 12 -93 -5 -133 -17 -40 -72 -87 -102 -87 -39 0 -83 -13 -83
-24 0 -23 102 -79 152 -84 26 -2 48 -8 48 -13 0 -5 18 -9 40 -9 22 0 40 5 40
10 0 6 18 10 39 10 86 0 203 89 257 197 27 52 29 66 29 162 0 112 -16 170 -54
190 -18 10 -359 11 -523 2z"/>
<path d="M3782 465 c-30 -25 -32 -32 -32 -88 -1 -62 -1 -62 -38 -79 -20 -9
-52 -19 -69 -23 -18 -4 -33 -10 -33 -14 0 -5 -21 -11 -46 -15 -26 -3 -54 -12
-62 -19 -11 -9 -71 -12 -226 -11 -178 0 -216 3 -241 17 -16 9 -38 17 -48 17
-9 0 -25 4 -35 9 -101 54 -147 66 -186 51 -42 -16 -56 -35 -56 -79 0 -49 17
-69 86 -101 27 -12 61 -29 76 -36 14 -8 33 -14 41 -14 8 0 28 -7 43 -15 16 -8
41 -15 56 -15 15 0 53 -7 85 -15 66 -17 273 -20 343 -4 25 6 68 14 96 19 28 4
61 13 72 19 11 6 28 11 37 11 9 0 33 7 53 16 21 8 51 21 67 28 17 7 47 21 67
31 45 22 82 22 102 2 36 -36 134 -28 156 13 19 36 12 80 -17 105 -59 52 -130
122 -164 162 -47 56 -84 64 -127 28z"/>
</g>
</svg>
