<?xml version="1.0" standalone="no"?>
<!DOCTYPE svg PUBLIC "-//W3C//DTD SVG 20010904//EN"
 "http://www.w3.org/TR/2001/REC-SVG-20010904/DTD/svg10.dtd">
<svg version="1.0" xmlns="http://www.w3.org/2000/svg"
 width="320.000000pt" height="320.000000pt" viewBox="0 0 320.000000 320.000000"
 preserveAspectRatio="xMidYMid meet">
<metadata>
Created by potrace 1.11, written by Peter Selinger 2001-2013
</metadata>
<g transform="translate(0.000000,320.000000) scale(0.100000,-0.100000)"
fill="#000000" stroke="none">
<path d="M1161 1419 c-91 -16 -181 -63 -181 -96 0 -26 31 -26 84 1 112 57 237
57 351 1 60 -29 80 -31 89 -9 9 22 1 31 -52 58 -86 44 -197 61 -291 45z"/>
<path d="M1854 1315 c-4 -8 -4 -22 0 -30 5 -13 41 -15 244 -15 201 0 242 2
252 15 10 12 10 18 0 30 -10 13 -51 15 -252 15 -203 0 -239 -2 -244 -15z"/>
<path d="M942 1233 c-19 -9 -41 -27 -49 -40 -11 -17 -25 -23 -49 -23 -40 0
-74 -29 -74 -63 0 -27 26 -67 44 -67 26 0 46 -37 55 -102 14 -98 50 -153 128
-192 44 -22 469 -24 511 -2 76 40 112 112 112 225 0 74 2 82 24 96 18 12 30
13 50 6 25 -10 26 -13 26 -88 0 -98 13 -144 52 -189 55 -62 64 -64 308 -64
197 0 225 2 258 19 68 35 103 89 121 184 11 59 26 97 39 97 5 0 18 9 30 20 47
44 17 120 -47 120 -16 0 -40 15 -64 38 l-38 37 -252 3 c-138 2 -262 0 -275 -3
-12 -3 -41 -22 -63 -42 -39 -36 -40 -36 -122 -34 -54 1 -85 6 -92 15 -6 7 -28
25 -49 40 l-39 26 -256 0 c-217 0 -261 -3 -289 -17z m549 -112 c28 -29 29 -32
29 -131 0 -99 -1 -102 -30 -131 l-30 -30 -214 3 c-197 3 -216 5 -236 23 -34
30 -48 72 -56 166 -6 81 -5 87 17 107 22 21 31 22 257 22 l234 0 29 -29z m864
4 c28 -27 29 -40 15 -138 -22 -149 -36 -157 -295 -157 l-197 0 -29 29 c-28 29
-29 32 -29 131 0 99 1 102 29 131 l29 29 227 0 226 0 24 -25z"/>
<path d="M1201 1122 c-22 -5 -37 -15 -42 -29 -7 -21 -6 -22 11 -11 26 17 70 0
89 -33 12 -22 12 -29 0 -54 -8 -16 -25 -32 -39 -35 -23 -6 -22 -8 18 -20 90
-28 168 28 166 122 0 26 -3 50 -5 52 -9 9 -163 15 -198 8z"/>
<path d="M1995 1123 c-16 -2 -36 -12 -42 -21 -17 -20 -17 -40 -1 -24 32 32
108 -4 108 -51 0 -31 -26 -65 -53 -69 -17 -3 -13 -7 21 -18 86 -27 172 29 172
113 0 23 -4 47 -8 54 -8 13 -146 25 -197 16z"/>
<path d="M1847 673 c-4 -3 -7 -18 -7 -33 0 -24 -6 -29 -54 -44 -75 -24 -180
-22 -247 3 -46 18 -55 19 -68 7 -23 -23 -6 -43 56 -66 83 -31 185 -30 284 3
53 18 88 24 113 20 30 -5 36 -3 36 13 0 20 -77 104 -95 104 -7 0 -15 -3 -18
-7z"/>
</g>
</svg>
