<svg version="1" xmlns="http://www.w3.org/2000/svg" width="346.667" height="346.667" viewBox="0 0 260.000000 260.000000"><path d="M57.4 4.2c-2.3 4.4-3.5 8.5-4.1 13.8-.3 2.5-.9 5-1.5 5.7-.5.7-.5 1.3.1 1.7.5.3.9 2.6.9 5.1 0 9 3.4 20.8 8.4 29 3.1 5.2 2.5 6.4-2.9 5.4-17.5-3.3-31-11.7-41.7-26-5.1-6.8-6-6.5-9.8 3.2C0 59-.6 73.1 4.6 88.1c3.6 10.3 11.8 23.1 20.3 31.6 3.3 3.4 6.1 6.7 6.1 7.2 0 .6-1.8 1.1-4 1.1-3.5 0-4 .3-4 2.3 0 7 7.7 28.3 11.6 32.2 1.9 1.8 7.4 2 9.7.3 2.2-1.8 9-19.3 10.3-26.8.9-5.2 1.5-10.8 1.8-15.8.4-8.2.7-8.5 6.9-6.2 18.2 6.7 40.3 6.9 63.1.4 4.8-1.4 9-2.4 9.2-2.2.8.9-3.4 7.3-8 12.1-9.6 9.9-20.8 15.9-36.3 19.2-10 2.2-11.5 3-7.1 3.9 15.6 2.9 30.6 2.4 49.8-1.8 10.4-2.3 32.8-14.1 41.4-21.9 3.6-3.2 4.9-2.2 4.1 3-.9 6.5-4.1 12.7-9.7 18.9-2.7 2.8-4.8 5.5-4.8 5.8 0 1 10 .7 16.5-.5 3.3-.6 7.1-1.2 8.5-1.4 1.4-.2 2.6-.4 2.8-.5.1-.1.5-.3 1-.5 3.1-.9 12.5-4.8 14.1-6 .8-.5 3.8-3.4 6.7-6.2 5.5-5.6 7.4-6.5 7.4-3.6 0 1 .5 5.2 1 9.3.5 4.1 1.2 9.5 1.5 12 .3 2.5.8 5.4 1 6.5.2 1.1.4 2.3.4 2.6.1.3 2.5.7 5.5.8 5.4.2 5.5.1 8.4-4.1 7.1-10.4 9.6-20 7.7-29.7-.6-3.2 1.4-2.5 5.6 2.1l3.8 4.2 1.1-2.8c1.4-3.9 1.2-14.3-.4-19.7-2.4-8-5.5-12.8-12.1-19.3-3.6-3.4-6.5-6.6-6.5-7 0-.5 3.8-.6 8.5-.4 4.7.3 8.5.4 8.5.2 0-1.2-6.9-6.7-10.9-8.6-5.8-2.8-15.2-3.1-23.9-.7-4.7 1.3-6.4 1.5-6.7.6-.2-.7-.6-8.1-.8-16.5-.2-8.4-.7-15.5-1-15.8-.3-.4-2 1.6-3.6 4.2-1.7 2.7-3.5 5.4-4.1 6.1-.5.7-1 1.5-1 1.8 0 1.3-4.6 7.5-5.5 7.4-.5 0-2.6-2.4-4.4-5.4-2.2-3.4-5.6-6.9-9-9.3-11.2-7.6-18.5-9.4-41.1-9.8-19.2-.3-22.8-.7-33.4-4.1-17.1-5.4-36.6-19-47.3-33.1C61.9 2.5 60.4 1 59.9 1s-1.6 1.4-2.5 3.2z"/><path d="M70 156.5c-8.6 2.9-12.5 5-14.4 7.6-1.2 1.8-1.3 2.4-.1 3.5 1.7 1.8 4.5 1.8 7 0 1.1-.7 4.9-2.4 8.5-3.7 10-3.6 21.8-3.2 33 1 4.7 1.8 9.4 3.5 10.6 3.8 2.4.5 4.9-2 4.1-4.1-.7-1.8-8.6-5.9-14.7-7.7-2.5-.7-5.2-1.4-6-1.7-.8-.2-6-.6-11.5-.7-8.2-.2-11.2.2-16.5 2zM161.9 166.2c-2.2.8-2.4 2.6-.6 4.8 1 1.3 5.5 1.5 29.7 1.4 20.4-.1 28.5-.4 28.8-1.3.2-.6.8-.9 1.3-.5 1.3.8 1.1-1-.5-3.1-1.2-1.7-3.2-1.8-29-1.9-15.3-.1-28.6.2-29.7.6zM177.7 173.6c-.1.1-4 .4-8.7.6-9 .6-13.4 2.1-17.7 6.4-2.2 2.2-3.2 2.4-12.6 2.4-9.5 0-10.4-.2-13.2-2.6-6.9-6-6.4-5.9-39.9-6.1-29.3-.2-31-.1-34.8 1.8-2.2 1.1-5.1 3.2-6.3 4.5-1.6 1.7-3.8 2.6-6.7 3-2.9.3-5 1.3-6.5 3-4 4.5-2.6 9.2 3.6 12.4 4.2 2.1 5.3 4.4 6.6 12.9 1.2 8.6 6.7 16.3 14.4 20.2 4.2 2.1 5.4 2.2 31.6 2.2 28.1 0 31-.3 35.9-4.3 3.9-3.2 6.2-6.1 7.2-9.1 1.3-4.1 1.5-5.1 1.8-14.3.4-9.8 1.4-11.6 6.7-11.6 4.2 0 5.3 2.3 5.5 11.3.3 9.7.7 12.5 2.8 16.4 1.8 3.6 7.8 9 11.5 10.5 1.6.7 12.7 1.1 29.3 1.1 23.6 0 27.1-.2 30.4-1.8 9.5-4.5 15.8-14.5 16.3-25.8.1-1 2.5-4.2 5.4-7.1 5.2-5.2 5.5-5.8 4.8-11.8-.2-1.9-6-4.5-10.4-4.7-.9-.1-2.5-1-3.5-2.2-3.4-4.1-8.3-6.3-14.6-6.5-3.4-.2-6.1-.3-6.1-.4 0-.1-32.7-.5-32.8-.4zM116 188.5c3.5 3.2 4.6 7.3 4.5 16.6-.2 10-2.5 15.3-7.3 16.2-1.5.4-13.8.5-27.4.4l-24.7-.2-3.1-3c-3.7-3.5-4.9-7.6-6.5-22.1-.3-3.4 2.2-8.3 4.7-9.3 1.3-.4 14.7-.8 29.9-.7 26.2.1 27.8.2 29.9 2.1zm105.7.9c2.3 2.7 2.4 3.4 1.8 10-.7 6.9-1.2 10.1-1.5 10.1-.1 0-.3 1-.6 2.3-.9 5-4.9 8.7-10.4 9.6-1.4.3-2.7.5-3 .6-.3.2-.9.1-1.5 0-.5-.2-9.7-.2-20.3-.1-21.9.3-25.3-.4-27.9-5.2-2.4-4.5-2.3-21.5.1-25.2 3.2-4.9 5.8-5.3 34.4-5.1l26.4.1 2.5 2.9z"/><path d="M77.8 189.2c-1.6 1.3-2.2 2.9-1.9 5.6.1.9.7.9 2.4-.3 3.7-2.4 8.5-1 10.4 3.1 1.5 3 1.5 3.5-.1 5.9-.9 1.4-3 2.8-4.6 3.2-3.8.7-3.8 1.7.1 3.3 9.4 3.9 19.4.1 22.3-8.5 1.4-4 1.1-10.2-.5-12.1-1.4-1.8-25.9-1.9-28.1-.2zM174 188.7c-2 .8-3 2.4-3 5.1 0 2 .3 2.1 2.1 1.2 3.4-1.9 6.2-2 8.6-.5 6.5 4.3 4.6 10-4.2 13-1.9.6-1.8.7.7 2.1 1.5.8 4.4 1.7 6.5 2 2.1.3 4.1.8 4.6 1.1.4.2.7 0 .7-.5s1.3-1.2 2.9-1.5c6.1-1.3 10.4-7.5 10.2-15-.1-7.5-.5-7.7-15-7.6-6.9 0-13.3.3-14.1.6zM159.7 240.6c-.4.4-.7 1.8-.7 3 0 1.3-1 3-2.2 3.8-6.2 4.1-22.6 4.9-32.8 1.7-8.2-2.6-9.7-2.6-10.5 0-1 3 1 4.6 8.9 7.3 9.4 3.3 20.3 3.3 31.1-.1 4.4-1.4 10.7-2.6 14-2.6 8-.3 8.5-2.2 1.9-8.3-4.7-4.4-8.3-6.2-9.7-4.8z"/></svg>